<?xml version="1.0" standalone="no"?>
<!DOCTYPE svg PUBLIC "-//W3C//DTD SVG 20010904//EN"
 "http://www.w3.org/TR/2001/REC-SVG-20010904/DTD/svg10.dtd">
<svg version="1.0" xmlns="http://www.w3.org/2000/svg"
 width="225.000000pt" height="225.000000pt" viewBox="0 0 225.000000 225.000000"
 preserveAspectRatio="xMidYMid meet">
<g transform="translate(0.000000,225.000000) scale(0.100000,-0.100000)"
fill="#000000" stroke="none">
<path d="M1036 2093 c-62 -108 -90 -168 -94 -198 -12 -111 71 -205 183 -205
110 0 192 88 183 196 -4 49 -41 123 -168 336 l-16 26 -88 -155z m108 66 c-3
-5 0 -9 5 -9 6 0 11 -7 11 -15 0 -8 5 -15 11 -15 5 0 7 -4 4 -10 -3 -5 -1 -10
4 -10 6 0 10 -3 9 -7 -3 -9 13 -39 51 -98 28 -44 27 -42 39 -102 7 -33 5 -51
-11 -87 -10 -25 -28 -48 -38 -51 -11 -4 -17 -10 -15 -14 3 -4 0 -8 -7 -9 -7 0
-23 -3 -37 -7 -45 -11 -70 -12 -70 -4 0 5 -7 9 -15 9 -25 0 -85 33 -85 47 0 7
-4 13 -8 13 -5 0 -9 6 -10 13 -1 6 -5 29 -8 51 -7 43 12 112 32 120 8 3 14 17
14 31 0 14 5 25 10 25 6 0 10 6 10 14 0 7 7 19 15 26 8 7 12 16 9 21 -3 5 0 9
5 9 6 0 11 4 11 9 0 5 10 25 23 44 16 25 25 32 34 25 7 -6 10 -14 7 -19z"/>
<path d="M1030 1495 l0 -95 -267 0 c-260 0 -270 -1 -318 -24 -56 -26 -116 -86
-142 -143 -13 -30 -17 -67 -17 -173 -1 -125 1 -138 22 -173 50 -79 159 -110
240 -68 20 11 84 67 142 125 l104 106 111 -110 c115 -113 158 -140 222 -140
63 1 113 33 223 144 l104 106 111 -110 c61 -60 128 -116 148 -125 48 -20 103
-19 152 4 81 37 105 90 105 234 0 63 -6 123 -15 154 -19 65 -85 139 -150 169
-49 23 -58 24 -317 24 l-268 0 0 95 0 95 -95 0 -95 0 0 -95z m159 -12 c1 -47
7 -81 14 -85 7 -4 8 -8 2 -8 -5 0 -3 -5 5 -10 8 -5 126 -9 267 -9 139 0 256
-2 261 -5 5 -3 21 -7 37 -10 16 -3 32 -11 36 -17 4 -6 11 -9 17 -5 6 3 14 1
18 -5 5 -8 2 -10 -7 -5 -8 4 -5 0 6 -8 42 -33 65 -59 65 -72 0 -8 4 -14 8 -14
11 0 11 -1 18 -153 6 -113 4 -133 -12 -167 -24 -49 -94 -86 -149 -77 -24 4
-33 2 -29 -5 7 -11 -9 -4 -31 14 -5 5 -27 22 -49 38 -21 17 -36 30 -32 30 4 0
-13 18 -39 40 -25 22 -46 43 -46 47 -1 11 -39 46 -39 36 0 -4 -5 0 -11 9 -21
37 -44 39 -84 8 -21 -17 -35 -30 -31 -30 4 0 -16 -20 -44 -45 -28 -25 -48 -45
-45 -45 3 0 -10 -14 -29 -31 -22 -19 -40 -28 -48 -23 -8 5 -7 1 2 -11 8 -10
10 -16 3 -12 -6 4 -13 3 -15 -3 -1 -5 -23 -13 -48 -16 -25 -3 -47 -7 -50 -7
-3 -1 -19 6 -36 16 -17 9 -35 13 -39 9 -5 -4 -5 -1 -1 6 4 7 2 12 -5 12 -11 0
-150 128 -156 144 -2 3 -5 5 -8 4 -2 -2 -12 7 -20 19 -39 55 -47 52 -161 -59
-57 -57 -109 -105 -114 -106 -6 -2 -8 -8 -4 -13 3 -5 -2 -9 -10 -9 -9 0 -16
-4 -16 -10 0 -5 -31 -8 -73 -7 -68 3 -76 5 -101 32 -52 55 -56 72 -51 211 4
147 5 155 17 148 7 -5 12 10 9 29 0 4 4 7 10 7 5 0 7 5 4 10 -3 6 2 13 12 17
29 10 53 35 46 47 -3 6 -3 8 2 4 4 -4 13 -4 19 1 28 23 107 31 332 31 167 1
248 5 265 13 22 12 24 19 27 95 l3 82 63 0 63 0 2 -77z"/>
<path d="M739 853 l-24 -28 28 24 c25 23 32 31 24 31 -2 0 -14 -12 -28 -27z"/>
<path d="M729 784 c-89 -90 -163 -126 -262 -126 -70 0 -92 6 -180 50 -4 2 -7
-103 -5 -233 l3 -237 28 -24 28 -24 784 0 784 0 28 24 28 24 3 236 3 235 -57
-26 c-46 -21 -73 -26 -130 -26 -99 1 -164 32 -258 123 l-72 70 -65 -66 c-36
-37 -88 -77 -119 -92 -47 -23 -67 -27 -145 -27 -116 0 -162 21 -259 115 l-72
70 -65 -66z m143 -48 c59 -59 93 -80 110 -70 7 5 8 3 3 -6 -6 -10 -4 -12 9 -7
9 4 15 3 11 -2 -8 -14 74 -24 154 -19 51 3 76 9 92 23 12 11 19 14 15 7 -7
-11 -4 -11 15 0 13 7 27 18 31 23 4 6 8 7 8 3 0 -4 30 21 66 56 66 64 67 64
87 45 12 -10 25 -19 29 -19 5 0 6 -4 3 -10 -3 -5 0 -10 8 -10 8 0 25 -14 38
-31 13 -17 53 -45 89 -62 56 -27 76 -31 145 -31 55 0 90 5 112 16 19 9 35 12
39 7 6 -11 3 -378 -4 -397 -2 -7 -13 -17 -23 -23 -20 -10 -1535 -14 -1563 -3
-33 13 -37 44 -36 237 0 105 2 192 4 194 2 2 16 -3 31 -11 16 -8 52 -18 80
-21 58 -8 165 10 165 27 0 6 3 8 7 5 3 -4 13 -1 21 6 13 10 14 9 7 -3 -5 -8 5
-4 22 10 18 14 32 31 32 39 1 8 4 12 7 8 3 -3 29 17 57 44 38 37 53 46 63 38
7 -6 37 -34 66 -63z"/>
</g>
</svg>
